<?xml version="1.0"?><svg height="250px" version="1.1" viewBox="0 0 220 250" width="220px" xmlns="http://www.w3.org/2000/svg" xmlns:xlink="http://www.w3.org/1999/xlink"><title/><desc/><g fill="none" fill-rule="evenodd" id="discord_logo" stroke="none" stroke-width="1"><path d="M195.228571,0 L26.7714286,0 C12.5657143,0 1,11.5 1,25.75 L1,194.75 C1,209 12.5657143,220.5 26.7714286,220.5 L169.331429,220.5 L162.668571,197.375 L178.76,212.25 L193.971429,226.25 L221,250 L221,25.75 C221,11.5 209.434286,0 195.228571,0 Z" fill="#6F85D5" fill-rule="nonzero" id="discord"/><path d="M146.488014,163 C146.488014,163 141.957192,157.625053 138.181507,152.8751 C154.668664,148.250146 160.961473,138.000247 160.961473,138.000247 C155.80137,141.375214 150.892979,143.75019 146.488014,145.375174 C140.195205,148.000148 134.15411,149.750131 128.23887,150.750121 C116.156678,153.000099 105.081336,152.375105 95.6421233,150.625122 C88.4683219,149.250136 82.3013699,147.250156 77.1412671,145.250176 C74.2465753,144.125187 71.1001712,142.7502 67.9537671,141.000218 C67.5761986,140.75022 67.1986301,140.625221 66.8210616,140.375224 C66.5693493,140.250225 66.4434932,140.125226 66.317637,140.000228 C64.052226,138.75024 62.7936644,137.875249 62.7936644,137.875249 C62.7936644,137.875249 68.8347603,147.87515 84.8184932,152.625103 C81.0428082,157.375056 76.3861301,163 76.3861301,163 C48.5719178,162.125009 38,144.000188 38,144.000188 C38,103.750586 56.1232877,71.1259089 56.1232877,71.1259089 C74.2465753,57.6260425 91.4888699,58.0010388 91.4888699,58.0010388 L92.7474315,59.5010239 C70.0933219,66.0009596 59.6472603,75.8758619 59.6472603,75.8758619 C59.6472603,75.8758619 62.4160959,74.3758768 67.072774,72.2508978 C80.5393836,66.3759559 91.2371575,64.750972 95.6421233,64.3759757 C96.3972603,64.2509769 97.0265411,64.1259782 97.7816781,64.1259782 C105.458904,63.1259881 114.142979,62.8759905 123.204623,63.8759806 C135.160959,65.250967 147.998288,68.7509324 161.087329,75.8758619 C161.087329,75.8758619 151.144692,66.5009547 129.749144,60.001019 L131.51113,58.0010388 C131.51113,58.0010388 148.753425,57.6260425 166.876712,71.1259089 C166.876712,71.1259089 185,103.750586 185,144.000188 C185,144.000188 174.302226,162.125009 146.488014,163 Z M88.2678549,106.750556 C81.2476387,106.750556 75.7053627,112.606354 75.7053627,119.750428 C75.7053627,126.894501 81.3708004,132.750299 88.2678549,132.750299 C95.2880711,132.750299 100.830347,126.894501 100.830347,119.750428 C100.953509,112.606354 95.2880711,106.750556 88.2678549,106.750556 Z M133.221871,106.750556 C126.201655,106.750556 120.659379,112.606354 120.659379,119.750428 C120.659379,126.894501 126.324817,132.750299 133.221871,132.750299 C140.242087,132.750299 145.784363,126.894501 145.784363,119.750428 C145.784363,112.606354 140.242087,106.750556 133.221871,106.750556 Z" fill="#F7F8F7" fill-rule="nonzero" id="Shape"/></g></svg>