<?xml version="1.0"?><!DOCTYPE svg  PUBLIC '-//W3C//DTD SVG 1.1//EN'  'http://www.w3.org/Graphics/SVG/1.1/DTD/svg11.dtd'><svg height="512px" style="shape-rendering:geometricPrecision; text-rendering:geometricPrecision; image-rendering:optimizeQuality; fill-rule:evenodd; clip-rule:evenodd" version="1.1" viewBox="0 0 512 512" width="512px" xml:space="preserve" xmlns="http://www.w3.org/2000/svg" xmlns:xlink="http://www.w3.org/1999/xlink" xmlns:xodm="http://www.corel.com/coreldraw/odm/2003"><defs><style type="text/css">
   <![CDATA[
    .fil1 {fill:white;fill-rule:nonzero}
    .fil0 {fill:url(#id0)}
   ]]>
  </style><linearGradient gradientUnits="userSpaceOnUse" id="id0" x1="67.83" x2="474.19" y1="82.42" y2="389.98"><stop offset="0" style="stop-opacity:1; stop-color:#5A3E85"/><stop offset="1" style="stop-opacity:1; stop-color:#7C4CC4"/></linearGradient></defs><g id="Layer_x0020_1"><g id="_1639420749328"><path class="fil0" d="M256 0c141.39,0 256,114.61 256,256 0,141.39 -114.61,256 -256,256 -141.39,0 -256,-114.61 -256,-256 0,-141.39 114.61,-256 256,-256z"/><path class="fil1" d="M146.44 123.34l-17.31 46.14 0 184.56 63.42 0 0 34.62 34.62 0 34.59 -34.62 51.9 0 69.21 -69.19 0 -161.51 -236.43 0zm23.05 23.06l190.31 0 0 126.89 -40.37 40.38 -63.43 0 -34.58 34.58 0 -34.58 -51.93 0 0 -167.27zm63.44 115.37l23.07 0 0 -69.2 -23.07 0 0 69.2zm63.43 0l23.07 0 0 -69.2 -23.07 0 0 69.2z"/></g></g></svg>